<?xml version="1.0" encoding="UTF-8"?>
<svg width="308px" height="35px" viewBox="0 0 308 35" version="1.1" xmlns="http://www.w3.org/2000/svg" xmlns:xlink="http://www.w3.org/1999/xlink">
    <!-- Generator: Sketch 50.1 (55044) - http://www.bohemiancoding.com/sketch -->
    <title>Group 30</title>
    <desc>Created with Sketch.</desc>
    <defs>
        <polygon id="path-1" points="0 0.00116814159 24.9620058 0.00116814159 24.9620058 32.8180619 0 32.8180619"></polygon>
        <polygon id="path-3" points="0.132941176 0.0908823529 29.8591176 0.0908823529 29.8591176 34.7268824 0.132941176 34.7268824"></polygon>
        <polygon id="path-5" points="0.265558824 0.20190625 4.76467647 0.20190625 4.76467647 5 0.265558824 5"></polygon>
    </defs>
    <g id="Page-1" stroke="none" stroke-width="1" fill="none" fill-rule="evenodd">
        <g id="Home" transform="translate(-135.000000, -39.000000)">
            <g id="Group-30" transform="translate(135.000000, 39.000000)">
                <g id="Group-3" transform="translate(0.000000, 1.000000)">
                    <mask id="mask-2" fill="white">
                        <use xlink:href="#path-1"></use>
                    </mask>
                    <g id="Clip-2"></g>
                    <path d="M24.8245058,32.8180619 L0.0343895349,32.8180619 C-0.0115406977,32.8180619 -0.0115406977,32.2629027 0.0343895349,32.2629027 L4.02828488,32.2629027 C4.21171512,32.2629027 4.30386628,32.216469 4.30386628,32.0777522 L4.30386628,0.741769912 C4.30386628,0.602761062 4.21171512,0.556619469 4.02828488,0.556619469 L0.0343895349,0.556619469 C-0.0115406977,0.556619469 -0.0115406977,0.00116814159 0.0343895349,0.00116814159 L14.3114244,0.00116814159 C14.4032849,0.00116814159 14.4032849,0.556619469 14.3114244,0.556619469 L10.3175291,0.556619469 C10.1340988,0.556619469 10.0419477,0.602761062 10.0419477,0.741769912 L10.0419477,32.0777522 C10.0419477,32.216469 10.1340988,32.2629027 10.3175291,32.2629027 L14.8620058,32.2629027 C21.7024128,32.2629027 24.4564826,26.8935398 24.4564826,22.1722035 C24.4564826,22.0796283 24.9620058,22.0796283 24.9620058,22.1722035 L24.9620058,32.6790531 C24.9620058,32.7719204 24.9160756,32.8180619 24.8245058,32.8180619" id="Fill-1" fill="#231F20" mask="url(#mask-2)"></path>
                </g>
                <path d="M28.0335363,34 C27.9888212,34 27.9888212,33.4417431 28.0335363,33.4417431 L31.9217688,33.4417431 C32.1003462,33.4417431 32.1903424,33.3950504 32.1903424,33.2555596 L32.1903424,1.74473406 C32.1903424,1.60494959 32.1003462,1.55855054 31.9217688,1.55855054 L28.0335363,1.55855054 C27.9888212,1.55855054 27.9888212,1 28.0335363,1 L41.9331396,1 C42.0222868,1 42.0222868,1.55855054 41.9331396,1.55855054 L38.000192,1.55855054 C37.8207656,1.55855054 37.7319015,1.60494959 37.7319015,1.74473406 L37.7319015,33.2555596 C37.7319015,33.3950504 37.8207656,33.4417431 38.000192,33.4417431 L41.9331396,33.4417431 C42.0222868,33.4417431 42.0222868,34 41.9331396,34 L28.0335363,34 Z" id="Fill-4" fill="#231F20"></path>
                <path d="M62.7354597,34 C62.6436228,34 62.6436228,33.4417431 62.7354597,33.4417431 L67.0634576,33.4417431 C67.2480061,33.4417431 67.2940704,33.3483577 67.2480061,33.3019587 L56.1057075,17.6628372 L56.1057075,33.2555596 C56.1057075,33.3950504 56.1981275,33.4417431 56.3820929,33.4417431 L60.3418684,33.4417431 C60.479478,33.4417431 60.479478,34 60.3418684,34 L46.068659,34 C45.9771137,34 45.9771137,33.4417431 46.068659,33.4417431 L50.0744988,33.4417431 C50.2584642,33.4417431 50.3508842,33.3950504 50.3508842,33.2555596 L50.3508842,1.74473406 C50.3508842,1.60494959 50.2584642,1.55855054 50.0744988,1.55855054 L46.068659,1.55855054 C45.9771137,1.55855054 45.9771137,1 46.068659,1 L60.3418684,1 C60.479478,1 60.479478,1.55855054 60.3418684,1.55855054 L56.3820929,1.55855054 C56.1981275,1.55855054 56.1057075,1.60494959 56.1057075,1.74473406 L56.1057075,17.3838556 L67.708357,3.51347744 C69.273375,1.69804134 69.1815381,1.55855054 68.9512169,1.55855054 L65.1299256,1.55855054 C65.0380887,1.55855054 65.0380887,1 65.1299256,1 L74.0156595,1 C74.107788,1 74.107788,1.55855054 74.0156595,1.55855054 L70.3783337,1.55855054 C70.0561756,1.55855054 69.9182744,1.74473406 68.3523817,3.51347744 L59.8348702,13.7065843 L74.1538523,33.3019587 C74.199625,33.3483577 74.4760104,33.4417431 74.5678474,33.4417431 L78.8961368,33.4417431 C79.0346211,33.4417431 79.0346211,34 78.8961368,34 L62.7354597,34 Z" id="Fill-6" fill="#231F20"></path>
                <path d="M101.863257,34 L76.0682991,34 C75.9772336,34 75.9772336,33.4417431 76.0682991,33.4417431 L79.9948129,33.4417431 C80.2226213,33.4417431 80.3145541,33.3950504 80.3145541,33.2555596 L80.3145541,1.74473406 C80.3145541,1.60494959 80.2226213,1.55855054 79.9948129,1.55855054 L76.0682991,1.55855054 C75.9772336,1.55855054 75.9772336,1 76.0682991,1 L99.4889045,1 C99.6262255,1 99.6262255,1.09279809 99.6262255,1.13978447 L99.6262255,10.3552811 C99.6262255,10.4486665 99.1237752,10.4486665 99.1237752,10.3552811 C99.1237752,6.02666121 96.7043234,1.55855054 91.0429392,1.55855054 L86.2948121,1.55855054 C86.0664256,1.55855054 85.9753601,1.60494959 85.9753601,1.74473406 L85.9753601,16.7786123 L87.4361666,16.7786123 C91.0429392,16.7786123 93.1889054,14.1720431 93.1889054,10.9605243 C93.1889054,10.8677262 93.6907775,10.8677262 93.6907775,10.9605243 L93.6907775,23.1552508 C93.6907775,23.2483426 93.1889054,23.2483426 93.1889054,23.1552508 C93.1889054,19.9901311 91.0429392,17.3368692 87.4361666,17.3368692 L85.9753601,17.3368692 L85.9753601,33.2555596 C85.9753601,33.3950504 86.0664256,33.4417431 86.2948121,33.4417431 L91.179682,33.4417431 C98.5762257,33.4417431 101.498128,28.5075863 101.498128,23.7138014 C101.498128,23.6204159 102,23.6204159 102,23.7138014 L102,33.8602155 C102,33.953601 101.954323,34 101.863257,34" id="Fill-8" fill="#231F20"></path>
                <path d="M118.85396,16.6305873 L115.856426,16.6305873 L111.300185,31.3967971 C111.100577,32.1291013 111.379914,32.6575385 112.09947,32.6575385 C113.338121,32.6575385 114.497327,31.8845187 115.736547,29.6474679 L116.175628,29.8510462 C114.737369,32.7389698 112.539405,34 110.900684,34 C108.382664,34 107.383202,32.1695282 108.382664,28.9151637 L112.179769,16.6305873 L109.261964,16.6305873 C109.18195,16.6305873 109.301829,16.1832926 109.421422,16.1832926 L112.338943,16.1832926 L114.137691,10.2442939 L117.894362,10 L116.016454,16.1832926 L118.973554,16.1832926 C119.053568,16.1832926 118.933974,16.6305873 118.85396,16.6305873" id="Fill-10" fill="#231F20"></path>
                <path d="M129.604935,16.4470796 C127.459136,16.4470796 126.179712,17.4626713 125.189569,19.2097428 C124.281742,20.794712 122.260004,27.7832866 122.260004,29.9367679 C122.260004,31.8869001 122.878549,33.5122506 125.395946,33.5122506 C127.5,33.5122506 128.779424,32.5370403 129.769567,30.7902572 C130.718552,29.1649067 132.740878,22.2167134 132.740878,20.0632321 C132.740878,18.1128115 132.080587,16.4470796 129.604935,16.4470796 M125.478262,34 C121.764345,34 119,31.1966669 119,27.1738162 C119,21.3635125 123.992754,16 129.522326,16 C133.235655,16 136,18.7629517 136,22.785514 C136,28.6364875 131.007246,34 125.478262,34" id="Fill-12" fill="#231F20"></path>
                <path d="M154.735604,34 C154.643768,34 154.643768,33.4417431 154.735604,33.4417431 L159.063583,33.4417431 C159.248131,33.4417431 159.293903,33.3483577 159.248131,33.3019587 L148.10559,17.6628372 L148.10559,33.2555596 C148.10559,33.3950504 148.198301,33.4417431 148.381974,33.4417431 L152.341732,33.4417431 C152.479633,33.4417431 152.479633,34 152.341732,34 L138.068877,34 C137.977041,34 137.977041,33.4417431 138.068877,33.4417431 L142.074699,33.4417431 C142.258373,33.4417431 142.351084,33.3950504 142.351084,33.2555596 L142.351084,1.74473406 C142.351084,1.60494959 142.258373,1.55855054 142.074699,1.55855054 L138.068877,1.55855054 C137.977041,1.55855054 137.977041,1 138.068877,1 L152.341732,1 C152.479633,1 152.479633,1.55855054 152.341732,1.55855054 L148.381974,1.55855054 C148.198301,1.55855054 148.10559,1.60494959 148.10559,1.74473406 L148.10559,17.3838556 L159.708188,3.51347744 C161.273491,1.69804134 161.181654,1.55855054 160.951334,1.55855054 L157.13006,1.55855054 C157.038223,1.55855054 157.038223,1 157.13006,1 L166.015754,1 C166.107591,1 166.107591,1.55855054 166.015754,1.55855054 L162.378445,1.55855054 C162.056288,1.55855054 161.918096,1.74473406 160.352502,3.51347744 L151.835028,13.7065843 L166.153947,33.3019587 C166.199719,33.3483577 166.476103,33.4417431 166.56794,33.4417431 L170.895919,33.4417431 C171.034694,33.4417431 171.034694,34 170.895919,34 L154.735604,34 Z" id="Fill-14" fill="#231F20"></path>
                <path d="M195.88544,1.54649777 C195.699077,1.54649777 195.606337,1.59189559 195.606337,1.72866369 L195.606337,33.8797999 C195.606337,34.016568 195.141755,34.0619658 195.001615,33.8797999 L173.986756,2.00162525 L173.986756,32.559528 C173.986756,32.6960087 174.032979,32.7414066 174.218753,32.7414066 L178.263684,32.7414066 C178.356719,32.7414066 178.356719,33.2879043 178.263684,33.2879043 L169.105105,33.2879043 C168.964965,33.2879043 168.964965,32.7414066 169.105105,32.7414066 L173.10293,32.7414066 C173.289293,32.7414066 173.382033,32.6960087 173.382033,32.559528 L173.382033,1.72866369 C173.382033,1.59189559 173.289293,1.54649777 173.10293,1.54649777 L169.105105,1.54649777 C168.964965,1.54649777 168.964965,1 169.105105,1 L179.612682,1 C179.938007,1 180.170004,1.1818786 180.588364,1.81945933 L195.047837,23.9063593 L195.047837,1.72866369 C195.047837,1.59189559 194.955392,1.54649777 194.768734,1.54649777 L190.770909,1.54649777 C190.631063,1.54649777 190.631063,1 190.770909,1 L199.929783,1 C200.023406,1 200.023406,1.54649777 199.929783,1.54649777 L195.88544,1.54649777 Z" id="Fill-16" fill="#231F20"></path>
                <g id="Group-20" transform="translate(203.000000, 0.000000)">
                    <mask id="mask-4" fill="white">
                        <use xlink:href="#path-3"></use>
                    </mask>
                    <g id="Clip-19"></g>
                    <path d="M20.2914706,2.42188235 C18.8979412,1.06982353 17.1329412,0.650705882 14.9958824,0.650705882 C12.9064706,0.650705882 11.1411765,1.06982353 9.74735294,2.42188235 C7.47176471,4.65923529 6.40323529,9.36747059 6.40323529,17.4324706 C6.40323529,26.6624706 7.47176471,30.2051176 9.74735294,32.4427647 C11.1411765,33.7945294 12.9064706,34.2145294 14.9958824,34.2145294 C17.1329412,34.2145294 18.8979412,33.7945294 20.2914706,32.4427647 C22.5673529,30.2051176 23.6355882,26.6624706 23.6355882,17.4324706 C23.6355882,9.36747059 22.5673529,4.65923529 20.2914706,2.42188235 M14.9958824,34.7268824 C6.82117647,34.7268824 0.132941176,26.9886471 0.132941176,17.4324706 C0.132941176,8.15570588 6.35705882,0.0907058824 14.9958824,0.0907058824 C23.2176471,0.0907058824 29.8591176,7.82923529 29.8591176,17.4324706 C29.8591176,26.9886471 23.2176471,34.7268824 14.9958824,34.7268824" id="Fill-18" fill="#231F20" mask="url(#mask-4)"></path>
                </g>
                <path d="M278.130751,1.56150895 C277.856468,1.56150895 277.581605,1.7486786 277.078269,3.52649505 L266.776123,34.876821 C266.729732,34.9701106 266.272207,34.9701106 266.226107,34.876821 L257.66447,10.4514769 L249.651399,34.876821 C249.559488,35.0636954 249.147484,35.0167554 249.056153,34.876821 L236.602072,1.7486786 C236.555971,1.65479855 236.41912,1.56150895 236.235588,1.56150895 L232.069151,1.56150895 C231.97695,1.56150895 231.97695,1 232.069151,1 L246.903928,1 C246.995839,1 246.995839,1.56150895 246.903928,1.56150895 L242.920443,1.56150895 C242.737491,1.56150895 242.691681,1.60815375 242.737491,1.7486786 L251.940765,26.4541867 L257.343796,9.70279828 L254.550515,1.7486786 C254.550515,1.65479855 254.229841,1.56150895 254.229841,1.56150895 L250.429888,1.56150895 C250.338557,1.56150895 250.338557,1 250.429888,1 L265.356577,1 C265.448198,1 265.448198,1.56150895 265.356577,1.56150895 L260.731745,1.56150895 C260.548213,1.56150895 260.502692,1.65479855 260.502692,1.7486786 L269.019678,26.5947116 L276.574064,3.29238538 C277.12379,1.7486786 277.12379,1.56150895 276.803406,1.56150895 L272.68249,1.56150895 C272.590579,1.56150895 272.590579,1 272.68249,1 L281.931284,1 C282.022905,1 282.022905,1.56150895 281.931284,1.56150895 L278.130751,1.56150895 Z" id="Fill-21" fill="#231F20"></path>
                <path d="M293.769306,10.5545452 C292.528984,10.5545452 291.496511,9.51009073 291.496511,8.25650809 C291.496511,7.00262881 292.528984,6 293.769306,6 C295.008744,6 296,7.00262881 296,8.25650809 C296,9.51009073 295.008744,10.5545452 293.769306,10.5545452 M289.512527,35 C287.281538,35 286.083022,33.7045917 286.083022,31.9075724 C286.083022,28.4393073 290.215268,22.6311795 290.215268,18.9956118 C290.215268,18.0348087 289.967086,17.7005002 289.182206,17.7005002 C288.397327,17.7005002 287.322754,18.5776521 286.454853,20.4162004 L286,20.2073688 C287.198811,17.532901 289.058557,16.4884465 290.628316,16.4884465 C292.818677,16.4884465 293.644773,17.8256805 293.644773,19.5387519 C293.644773,23.6756339 289.554332,29.3588781 289.554332,32.0330493 C289.554332,32.9941491 289.884358,33.6209404 290.79377,33.6209404 C292.075014,33.6209404 293.272647,32.8268466 294.51238,30.5288095 L294.966938,30.7379377 C293.520829,33.6209404 291.206818,35 289.512527,35" id="Fill-23" fill="#231F20"></path>
                <path d="M307.853998,16.6305873 L304.856498,16.6305873 L300.30031,31.3967971 C300.10042,32.1291013 300.380038,32.6575385 301.099586,32.6575385 C302.338222,32.6575385 303.497415,31.8845187 304.736621,29.6474679 L305.175696,29.8510462 C303.737454,32.7389698 301.539231,34 299.900529,34 C297.382539,34 296.383372,32.1695282 297.382539,28.9151637 L301.179599,16.6305873 L298.262113,16.6305873 C298.1821,16.6305873 298.301692,16.1832926 298.421285,16.1832926 L301.339056,16.1832926 L303.137783,10.2442939 L306.89441,10 L305.016239,16.1832926 L307.97359,16.1832926 C308.053603,16.1832926 307.933726,16.6305873 307.853998,16.6305873" id="Fill-25" fill="#231F20"></path>
                <g id="Group-29" transform="translate(275.000000, 30.000000)">
                    <mask id="mask-6" fill="white">
                        <use xlink:href="#path-5"></use>
                    </mask>
                    <g id="Clip-28"></g>
                    <path d="M2.53585294,5.00003125 C1.29702941,5.00003125 0.265558824,3.89971875 0.265558824,2.57878125 C0.265558824,1.25815625 1.29702941,0.20190625 2.53585294,0.20190625 C3.77438235,0.20190625 4.76467647,1.25815625 4.76467647,2.57878125 C4.76467647,3.89971875 3.77438235,5.00003125 2.53585294,5.00003125" id="Fill-27" fill="#231F20" mask="url(#mask-6)"></path>
                </g>
            </g>
        </g>
    </g>
</svg>