<?xml version="1.0" encoding="UTF-8"?>
<svg width="317px" height="36px" viewBox="0 0 317 36" version="1.1" xmlns="http://www.w3.org/2000/svg" xmlns:xlink="http://www.w3.org/1999/xlink">
    <!-- Generator: Sketch 50.1 (55044) - http://www.bohemiancoding.com/sketch -->
    <title>Group 30</title>
    <desc>Created with Sketch.</desc>
    <defs>
        <polygon id="path-1" points="0 0.00120353982 25.960486 0.00120353982 25.960486 33.8125487 0 33.8125487"></polygon>
        <polygon id="path-3" points="0.137372549 0.0934789916 30.8544216 0.0934789916 30.8544216 35.719079 0.137372549 35.719079"></polygon>
        <polygon id="path-5" points="0.265558824 0.20190625 4.76467647 0.20190625 4.76467647 5 0.265558824 5"></polygon>
    </defs>
    <g id="Page-1" stroke="none" stroke-width="1" fill="none" fill-rule="evenodd">
        <g id="Archive-Page-Layout-Copy" transform="translate(-140.000000, -35.000000)">
            <g id="Group-30" transform="translate(140.000000, 35.000000)">
                <g id="Group-3" transform="translate(0.000000, 1.000000)">
                    <mask id="mask-2" fill="white">
                        <use xlink:href="#path-1"></use>
                    </mask>
                    <g id="Clip-2"></g>
                    <path d="M25.817486,33.8125487 L0.0357651163,33.8125487 C-0.0120023256,33.8125487 -0.0120023256,33.2405664 0.0357651163,33.2405664 L4.18941628,33.2405664 C4.38018372,33.2405664 4.47602093,33.1927257 4.47602093,33.0498053 L4.47602093,0.764247788 C4.47602093,0.621026549 4.38018372,0.573486726 4.18941628,0.573486726 L0.0357651163,0.573486726 C-0.0120023256,0.573486726 -0.0120023256,0.00120353982 0.0357651163,0.00120353982 L14.8838814,0.00120353982 C14.9794163,0.00120353982 14.9794163,0.573486726 14.8838814,0.573486726 L10.7302302,0.573486726 C10.5394628,0.573486726 10.4436256,0.621026549 10.4436256,0.764247788 L10.4436256,33.0498053 C10.4436256,33.1927257 10.5394628,33.2405664 10.7302302,33.2405664 L15.456486,33.2405664 C22.5705093,33.2405664 25.4347419,27.7084956 25.4347419,22.8440885 C25.4347419,22.748708 25.960486,22.748708 25.960486,22.8440885 L25.960486,33.6693274 C25.960486,33.7650088 25.9127186,33.8125487 25.817486,33.8125487" id="Fill-1" fill="#FEFEFE" mask="url(#mask-2)"></path>
                </g>
                <path d="M29.0359318,35 C28.9880227,35 28.9880227,34.4248262 29.0359318,34.4248262 L33.2018951,34.4248262 C33.393228,34.4248262 33.4896526,34.3767186 33.4896526,34.2330008 L33.4896526,1.76730175 C33.4896526,1.62328139 33.393228,1.57547632 33.2018951,1.57547632 L29.0359318,1.57547632 C28.9880227,1.57547632 28.9880227,1 29.0359318,1 L43.9283639,1 C44.0238787,1 44.0238787,1.57547632 43.9283639,1.57547632 L39.7144915,1.57547632 C39.5222489,1.57547632 39.4270373,1.62328139 39.4270373,1.76730175 L39.4270373,34.2330008 C39.4270373,34.3767186 39.5222489,34.4248262 39.7144915,34.4248262 L43.9283639,34.4248262 C44.0238787,34.4248262 44.0238787,35 43.9283639,35 L29.0359318,35 Z" id="Fill-4" fill="#FEFEFE"></path>
                <path d="M64.2425948,35 C64.147975,35 64.147975,34.4248262 64.2425948,34.4248262 L68.7017442,34.4248262 C68.8918851,34.4248262 68.9393452,34.328611 68.8918851,34.2808059 L57.411941,18.1677716 L57.411941,34.2330008 C57.411941,34.3767186 57.5071616,34.4248262 57.6967018,34.4248262 L61.7764705,34.4248262 C61.9182501,34.4248262 61.9182501,35 61.7764705,35 L47.0707396,35 C46.9764201,35 46.9764201,34.4248262 47.0707396,34.4248262 L51.1979685,34.4248262 C51.3875086,34.4248262 51.4827292,34.3767186 51.4827292,34.2330008 L51.4827292,1.76730175 C51.4827292,1.62328139 51.3875086,1.57547632 51.1979685,1.57547632 L47.0707396,1.57547632 C46.9764201,1.57547632 46.9764201,1 47.0707396,1 L61.7764705,1 C61.9182501,1 61.9182501,1.57547632 61.7764705,1.57547632 L57.6967018,1.57547632 C57.5071616,1.57547632 57.411941,1.62328139 57.411941,1.76730175 L57.411941,17.880336 L69.366186,3.58964342 C70.9786288,1.71919411 70.8840089,1.57547632 70.6467083,1.57547632 L66.7096203,1.57547632 C66.6150005,1.57547632 66.6150005,1 66.7096203,1 L75.8646189,1 C75.9595392,1 75.9595392,1.57547632 75.8646189,1.57547632 L72.1170711,1.57547632 C71.7851506,1.57547632 71.6430706,1.76730175 70.0297266,3.58964342 L61.2541087,14.0916323 L76.0069993,34.2808059 C76.0541591,34.328611 76.3389198,34.4248262 76.4335397,34.4248262 L80.8929894,34.4248262 C81.0356702,34.4248262 81.0356702,35 80.8929894,35 L64.2425948,35 Z" id="Fill-6" fill="#FEFEFE"></path>
                <path d="M105.857998,35 L79.070926,35 C78.976358,35 78.976358,34.4248262 79.070926,34.4248262 L83.1484596,34.4248262 C83.3850298,34.4248262 83.4804985,34.3767186 83.4804985,34.2330008 L83.4804985,1.76730175 C83.4804985,1.62328139 83.3850298,1.57547632 83.1484596,1.57547632 L79.070926,1.57547632 C78.976358,1.57547632 78.976358,1 79.070926,1 L103.392324,1 C103.534927,1 103.534927,1.09561016 103.534927,1.14402036 L103.534927,10.6387744 C103.534927,10.7349897 103.013151,10.7349897 103.013151,10.6387744 C103.013151,6.17898428 100.500644,1.57547632 94.6215138,1.57547632 L89.6907664,1.57547632 C89.4535958,1.57547632 89.3590277,1.62328139 89.3590277,1.76730175 L89.3590277,17.2567521 L90.8760191,17.2567521 C94.6215138,17.2567521 96.8500171,14.5711959 96.8500171,11.2623584 C96.8500171,11.1667482 97.3711921,11.1667482 97.3711921,11.2623584 L97.3711921,23.8266221 C97.3711921,23.9225348 96.8500171,23.9225348 96.8500171,23.8266221 C96.8500171,20.5655896 94.6215138,17.8319258 90.8760191,17.8319258 L89.3590277,17.8319258 L89.3590277,34.2330008 C89.3590277,34.3767186 89.4535958,34.4248262 89.6907664,34.4248262 L94.763516,34.4248262 C102.444542,34.4248262 105.478825,29.3411496 105.478825,24.4020984 C105.478825,24.3058831 106,24.3058831 106,24.4020984 L106,34.8559796 C106,34.9521949 105.952566,35 105.857998,35" id="Fill-8" fill="#FEFEFE"></path>
                <path d="M123.840684,16.9068617 L120.570646,16.9068617 L115.600202,32.2883303 C115.382448,33.0511472 115.687179,33.6016026 116.47215,33.6016026 C117.823405,33.6016026 119.087993,32.7963736 120.43987,30.4661124 L120.918866,30.6781731 C119.349857,33.6864269 116.952078,35 115.164383,35 C112.417452,35 111.327129,33.0932586 112.417452,29.7032955 L116.559748,16.9068617 L113.376688,16.9068617 C113.2894,16.9068617 113.420177,16.4409298 113.550643,16.4409298 L116.733392,16.4409298 L118.695663,10.2544728 L122.79385,10 L120.745222,16.4409298 L123.97115,16.4409298 C124.058438,16.4409298 123.927972,16.9068617 123.840684,16.9068617" id="Fill-10" fill="#FEFEFE"></path>
                <path d="M133.604935,16.4719173 C131.459136,16.4719173 130.179712,17.5439308 129.189569,19.3880619 C128.281742,21.0610848 126.260004,28.4379136 126.260004,30.7110328 C126.260004,32.7695056 126.878549,34.4851534 129.395946,34.4851534 C131.5,34.4851534 132.779424,33.4557648 133.769567,31.6119381 C134.718552,29.8962904 136.740878,22.5620864 136.740878,20.2889672 C136.740878,18.2301899 136.080587,16.4719173 133.604935,16.4719173 M129.478262,35 C125.764345,35 123,32.0409262 123,27.7945838 C123,21.6614855 127.992754,16 133.522326,16 C137.235655,16 140,18.916449 140,23.162487 C140,29.3385145 135.007246,35 129.478262,35" id="Fill-12" fill="#FEFEFE"></path>
                <path d="M159.242744,35 C159.148125,35 159.148125,34.4248262 159.242744,34.4248262 L163.701874,34.4248262 C163.892014,34.4248262 163.939173,34.328611 163.892014,34.2808059 L152.41182,18.1677716 L152.41182,34.2330008 C152.41182,34.3767186 152.507341,34.4248262 152.696579,34.4248262 L156.77633,34.4248262 C156.918409,34.4248262 156.918409,35 156.77633,35 L142.070965,35 C141.976345,35 141.976345,34.4248262 142.070965,34.4248262 L146.198175,34.4248262 C146.387414,34.4248262 146.482935,34.3767186 146.482935,34.2330008 L146.482935,1.76730175 C146.482935,1.62328139 146.387414,1.57547632 146.198175,1.57547632 L142.070965,1.57547632 C141.976345,1.57547632 141.976345,1 142.070965,1 L156.77633,1 C156.918409,1 156.918409,1.57547632 156.77633,1.57547632 L152.696579,1.57547632 C152.507341,1.57547632 152.41182,1.62328139 152.41182,1.76730175 L152.41182,17.880336 L164.366012,3.58964342 C165.978748,1.71919411 165.884129,1.57547632 165.646829,1.57547632 L161.709759,1.57547632 C161.615139,1.57547632 161.615139,1 161.709759,1 L170.864717,1 C170.959336,1 170.959336,1.57547632 170.864717,1.57547632 L167.117185,1.57547632 C166.785266,1.57547632 166.642887,1.76730175 165.02985,3.58964342 L156.254271,14.0916323 L171.007096,34.2808059 C171.054256,34.328611 171.339016,34.4248262 171.433635,34.4248262 L175.892765,34.4248262 C176.035745,34.4248262 176.035745,35 175.892765,35 L159.242744,35 Z" id="Fill-14" fill="#FEFEFE"></path>
                <path d="M201.752713,1.56305831 C201.560338,1.56305831 201.464606,1.60983182 201.464606,1.75074441 L201.464606,34.8761575 C201.464606,35.0170701 200.985037,35.0638436 200.840376,34.8761575 L179.147619,2.03197753 L179.147619,33.5158773 C179.147619,33.6564939 179.195333,33.7032674 179.3871,33.7032674 L183.562513,33.7032674 C183.658548,33.7032674 183.658548,34.2663257 183.562513,34.2663257 L174.108496,34.2663257 C173.963835,34.2663257 173.963835,33.7032674 174.108496,33.7032674 L178.235283,33.7032674 C178.427658,33.7032674 178.523389,33.6564939 178.523389,33.5158773 L178.523389,1.75074441 C178.523389,1.60983182 178.427658,1.56305831 178.235283,1.56305831 L174.108496,1.56305831 C173.963835,1.56305831 173.963835,1 174.108496,1 L184.955026,1 C185.290846,1 185.530327,1.18739007 185.962182,1.84429143 L200.88809,24.6004914 L200.88809,1.75074441 C200.88809,1.60983182 200.792662,1.56305831 200.599984,1.56305831 L196.473197,1.56305831 C196.32884,1.56305831 196.32884,1 196.473197,1 L205.927518,1 C206.024161,1 206.024161,1.56305831 205.927518,1.56305831 L201.752713,1.56305831 Z" id="Fill-16" fill="#FEFEFE"></path>
                <g id="Group-20" transform="translate(209.000000, 0.000000)">
                    <mask id="mask-4" fill="white">
                        <use xlink:href="#path-3"></use>
                    </mask>
                    <g id="Clip-19"></g>
                    <path d="M20.9678529,2.49107899 C19.5278725,1.10038992 17.7040392,0.669297479 15.4957451,0.669297479 C13.3366863,0.669297479 11.512549,1.10038992 10.0722647,2.49107899 C7.72082353,4.7923563 6.61667647,9.63511261 6.61667647,17.9305412 C6.61667647,27.4242555 7.72082353,31.068121 10.0722647,33.3697008 C11.512549,34.7600874 13.3366863,35.1920874 15.4957451,35.1920874 C17.7040392,35.1920874 19.5278725,34.7600874 20.9678529,33.3697008 C23.319598,31.068121 24.4234412,27.4242555 24.4234412,17.9305412 C24.4234412,9.63511261 23.319598,4.7923563 20.9678529,2.49107899 M15.4957451,35.719079 C7.04854902,35.719079 0.137372549,27.7597513 0.137372549,17.9305412 C0.137372549,8.38872605 6.56896078,0.093297479 15.4957451,0.093297479 C23.9915686,0.093297479 30.8544216,8.05292773 30.8544216,17.9305412 C30.8544216,27.7597513 23.9915686,35.719079 15.4957451,35.719079" id="Fill-18" fill="#FEFEFE" mask="url(#mask-4)"></path>
                </g>
                <path d="M285.975981,1.57802392 C285.690727,1.57802392 285.404869,1.77069856 284.8814,3.60080373 L274.167168,35.8731981 C274.118922,35.9692315 273.643096,35.9692315 273.595151,35.8731981 L264.691049,10.7294615 L256.357455,35.8731981 C256.261868,36.0655688 255.833383,36.0172482 255.738399,35.8731981 L242.786155,1.77069856 C242.73821,1.67405734 242.595885,1.57802392 242.405011,1.57802392 L238.071917,1.57802392 C237.976028,1.57802392 237.976028,1 238.071917,1 L253.500086,1 C253.595673,1 253.595673,1.57802392 253.500086,1.57802392 L249.357261,1.57802392 C249.166991,1.57802392 249.119348,1.62604063 249.166991,1.77069856 L258.738396,27.2028393 L264.357548,9.95876294 L261.452535,1.77069856 C261.452535,1.67405734 261.119035,1.57802392 261.119035,1.57802392 L257.167084,1.57802392 C257.072099,1.57802392 257.072099,1 257.167084,1 L272.69084,1 C272.786126,1 272.786126,1.57802392 272.69084,1.57802392 L267.881014,1.57802392 C267.690141,1.57802392 267.6428,1.67405734 267.6428,1.77069856 L276.500465,27.3474972 L284.357026,3.35980848 C284.928741,1.77069856 284.928741,1.57802392 284.595542,1.57802392 L280.309789,1.57802392 C280.214202,1.57802392 280.214202,1 280.309789,1 L289.928536,1 C290.023821,1 290.023821,1.57802392 289.928536,1.57802392 L285.975981,1.57802392 Z" id="Fill-21" fill="#FEFEFE"></path>
                <path d="M301.769306,10.5545452 C300.528984,10.5545452 299.496511,9.51009073 299.496511,8.25650809 C299.496511,7.00262881 300.528984,6 301.769306,6 C303.008744,6 304,7.00262881 304,8.25650809 C304,9.51009073 303.008744,10.5545452 301.769306,10.5545452 M297.512527,35 C295.281538,35 294.083022,33.7045917 294.083022,31.9075724 C294.083022,28.4393073 298.215268,22.6311795 298.215268,18.9956118 C298.215268,18.0348087 297.967086,17.7005002 297.182206,17.7005002 C296.397327,17.7005002 295.322754,18.5776521 294.454853,20.4162004 L294,20.2073688 C295.198811,17.532901 297.058557,16.4884465 298.628316,16.4884465 C300.818677,16.4884465 301.644773,17.8256805 301.644773,19.5387519 C301.644773,23.6756339 297.554332,29.3588781 297.554332,32.0330493 C297.554332,32.9941491 297.884358,33.6209404 298.79377,33.6209404 C300.075014,33.6209404 301.272647,32.8268466 302.51238,30.5288095 L302.966938,30.7379377 C301.520829,33.6209404 299.206818,35 297.512527,35" id="Fill-23" fill="#FEFEFE"></path>
                <path d="M316.840725,16.9068617 L313.570725,16.9068617 L308.600338,32.2883303 C308.382276,33.0511472 308.687314,33.6016026 309.472276,33.6016026 C310.823515,33.6016026 312.088089,32.7963736 313.43995,30.4661124 L313.918941,30.6781731 C312.34995,33.6864269 309.951888,35 308.164214,35 C305.417315,35 304.327315,33.0932586 305.417315,29.7032955 L309.559563,16.9068617 L306.37685,16.9068617 C306.289563,16.9068617 306.420028,16.4409298 306.550492,16.4409298 L309.733515,16.4409298 L311.695764,10.2544728 L315.793902,10 L313.744988,16.4409298 L316.971189,16.4409298 C317.058476,16.4409298 316.927701,16.9068617 316.840725,16.9068617" id="Fill-25" fill="#FEFEFE"></path>
                <g id="Group-29" transform="translate(283.000000, 31.000000)">
                    <mask id="mask-6" fill="white">
                        <use xlink:href="#path-5"></use>
                    </mask>
                    <g id="Clip-28"></g>
                    <path d="M2.53585294,5.00003125 C1.29702941,5.00003125 0.265558824,3.89971875 0.265558824,2.57878125 C0.265558824,1.25815625 1.29702941,0.20190625 2.53585294,0.20190625 C3.77438235,0.20190625 4.76467647,1.25815625 4.76467647,2.57878125 C4.76467647,3.89971875 3.77438235,5.00003125 2.53585294,5.00003125" id="Fill-27" fill="#FEFEFE" mask="url(#mask-6)"></path>
                </g>
            </g>
        </g>
    </g>
</svg>